HIERARCHY
ROOT pelvis
{
  OFFSET 0 100 0
  CHANNELS 6 Xposition Yposition Zposition Zrotation Xrotation Yrotation
  JOINT pelvis_right_femur
  {
    OFFSET -10.78128 -3.44521 -0.5502486
    CHANNELS 3 Zrotation Xrotation Yrotation
    JOINT right_femur_tibia
    {
      OFFSET -0.8047443 -44.0398 -0.1307829
      CHANNELS 3 Zrotation Xrotation Yrotation
      JOINT right_tibia_foot
      {
        OFFSET 3.006224 -47.83518 -5
        CHANNELS 3 Zrotation Xrotation Yrotation
        End Site
        {
          OFFSET 0 -5 15
        }
      }
    }
  }
  JOINT pelvis_left_femur
  {
    OFFSET 10.78128 -3.44521 -0.5502486
    CHANNELS 3 Zrotation Xrotation Yrotation
    JOINT left_femur_tibia
    {
      OFFSET 0.8047443 -44.0398 -0.1307829
      CHANNELS 3 Zrotation Xrotation Yrotation
      JOINT left_tibia_foot
      {
        OFFSET -4.370144 -48.10324 -4.275266
        CHANNELS 3 Zrotation Xrotation Yrotation
        End Site
        {
          OFFSET 0 -5 15
        }
      }
    }
  }
  JOINT pelvis_spine1
  {
    OFFSET 0 6.468898 -3.129235
    CHANNELS 3 Zrotation Xrotation Yrotation
    JOINT spine1
    {
      OFFSET 0 23.15396 4.99043
      CHANNELS 3 Zrotation Xrotation Yrotation
      JOINT spine2
      {
        OFFSET 0 20.79997 -5.064912
        CHANNELS 3 Zrotation Xrotation Yrotation
        JOINT neck
        {
          OFFSET 0 14.38658 9.616178
          CHANNELS 3 Zrotation Xrotation Yrotation
          End Site
          {
            OFFSET 0 20 0
          }
        }
      }
      JOINT right_manubrium
      {
        OFFSET -5.722621 16.35077 3.967754
        CHANNELS 3 Zrotation Xrotation Yrotation
        JOINT right_clavicle
        {
          OFFSET -13.16364 1.694482 -4.693211
          CHANNELS 3 Zrotation Xrotation Yrotation
          JOINT right_humerus
          {
            OFFSET -28.5034 -0.3100689 -2.792744
            CHANNELS 3 Zrotation Xrotation Yrotation
            JOINT right_radius
            {
              OFFSET -25.15693 0.02248979 -1.271978
              CHANNELS 3 Zrotation Xrotation Yrotation
              End Site
              {
                OFFSET -15 0 0
              }
            }
          }
        }
      }
      JOINT left_manubrium
      {
        OFFSET 5.722621 16.35077 3.967754
        CHANNELS 3 Zrotation Xrotation Yrotation
        JOINT left_clavicle
        {
          OFFSET 13.16364 1.694482 -4.693211
          CHANNELS 3 Zrotation Xrotation Yrotation
          JOINT left_humerus
          {
            OFFSET 29.39168 -1.063119 -2.237045
            CHANNELS 3 Zrotation Xrotation Yrotation
            JOINT left_radius
            {
              OFFSET 24.59957 -0.9528479 0.9047498
              CHANNELS 3 Zrotation Xrotation Yrotation
              End Site
              {
                OFFSET 15 -0 -0
              }
            }
          }
        }
      }
    }
  }
}
MOTION
Frames: 11
Frame Time: 0.0416666666667
279.6885 94.64436 3010.468 0.7680748 -5.121817 -5.253272 4.00564 9.539462 4.238386 -0 8.746153 -0 -1.803144 -12.94126 -1.708172 1.082788 -24.56487 -2.650198 -0 39.76435 -0 -5.857813 -6.873859 17.16101 -1.937151 1.365006 8.114517 0.6899284 10.54323 -4.232149 1.164535 22.43373 5.229975 2.812073 -17.93671 5.284645 4.106842 -19.65208 12.69194 79.17611 29.30135 -8.249143 -0 0 18.89877 -21.1453 11.63098 13.39903 4.247734 -18.3793 -2.774507 -91.04238 22.69377 21.18609 0 0 -17.55328 -0.5545164 7.154448 14.21359
279.7099 93.32274 3016.15 0.3846125 -4.566533 -5.810595 4.007738 12.54988 3.935541 -0 9.001367 -0 -1.531688 -14.62219 -0.7800276 2.404716 -27.41056 -1.779567 -0 29.86276 -0 -5.307203 -6.920981 17.92754 -1.563873 1.118907 8.027362 0.3007156 10.01113 -3.923973 1.036555 22.30559 5.252088 2.609039 -17.87761 5.329703 3.306735 -20.71891 12.36511 77.99503 28.82745 -5.817797 -0 0 21.36601 -21.97732 11.16214 14.16211 4.399297 -17.66479 -2.459223 -91.58739 22.61921 22.51315 0 0 -16.17826 -0.4453913 7.242571 14.0948
279.7952 91.78306 3022.16 0.01465198 -4.043646 -6.373685 3.835913 15.06722 3.693168 -0 10.33805 -0 -1.089189 -15.87823 -0.03908976 3.056595 -28.92095 -1.48012 -0 22.48073 -0 -4.775038 -6.526009 18.5001 -1.260348 0.7053743 7.97819 0.000165756 9.566016 -3.735907 0.9965329 22.13395 5.288327 2.492828 -17.80945 5.421506 2.79815 -21.44444 12.03375 77.14699 28.3996 -4.030624 -0 0 23.08282 -22.81896 10.80668 14.84387 4.387644 -17.05487 -2.279085 -91.92966 22.52026 23.51074 0 0 -14.75059 -0.2822755 7.336142 13.9655
279.9447 90.2947 3028.553 -0.1131281 -3.68219 -6.959347 3.297476 17.11807 3.540018 -0 12.76607 -0 -0.4845985 -16.21288 0.4292555 2.789058 -29.35025 -1.869527 -0 18.24452 -0 -4.194772 -6.056431 18.91789 -1.272902 0.1782755 8.065142 -0.2310881 9.275005 -3.580594 1.086261 21.9911 5.306406 2.494705 -17.66631 5.538812 2.629655 -21.74686 11.74204 76.64877 28.05034 -2.936947 -0 0 23.94353 -23.63923 10.58671 15.41716 4.248087 -16.54503 -2.235605 -92.17981 22.45095 24.24098 0 0 -13.27622 -0.2139409 7.447714 13.96333
280.1604 89.09127 3035.328 0.1063576 -3.542785 -7.518058 2.344247 18.57668 3.520069 -0 16.52878 -0 0.1794683 -15.10013 0.5779338 1.617367 -28.82576 -2.893673 -0 16.93952 -0 -3.547375 -5.829398 19.16633 -1.703301 -0.4158869 8.26836 -0.4193938 9.180214 -3.414159 1.295107 21.90103 5.300808 2.616424 -17.48521 5.664541 2.779081 -21.62442 11.51931 76.52531 27.80401 -2.531647 -0 0 23.99506 -24.35655 10.50765 15.84176 4.031193 -16.1321 -2.303008 -92.42197 22.43184 24.79102 0 0 -11.77921 -0.3045212 7.578129 14.155
280.4426 88.36082 3042.418 0.6486363 -3.634247 -7.926779 1.071988 19.16912 3.676395 -0 22.08846 -0 0.7769837 -12.17681 0.3933576 -0.2261379 -27.33908 -4.343532 -0 17.81143 -0 -2.842524 -6.042761 19.19379 -2.502126 -1.029293 8.49577 -0.5961905 9.31865 -3.26203 1.55397 21.83158 5.29823 2.832123 -17.38498 5.785608 3.190183 -21.17005 11.39941 76.83035 27.71944 -2.81203 -0 0 23.38675 -24.88049 10.56348 16.06283 3.775226 -15.85596 -2.448531 -92.62641 22.41517 25.20797 0 0 -10.38294 -0.4800622 7.688288 14.45653
280.788 88.24337 3049.694 1.371637 -3.916832 -8.011605 -0.2684928 18.47421 4.007388 -0 29.85512 -0 1.206911 -7.441793 -0.1208069 -2.346874 -24.77962 -5.877289 -0 19.77234 -0 -2.091364 -6.773816 18.957 -3.492323 -1.584603 8.617112 -0.7726268 9.729983 -3.24474 1.733567 21.70703 5.356319 3.089248 -17.53919 5.888893 3.793128 -20.56951 11.43384 77.65711 27.95757 -3.820849 -0 0 22.28767 -25.14799 10.73617 16.0261 3.49108 -15.81761 -2.650742 -92.60314 22.2888 25.45157 0 0 -9.365786 -0.534987 7.682176 14.61604
281.1887 88.80092 3056.964 2.025787 -4.316947 -7.611127 -1.265058 15.97947 4.408475 -0 39.57978 -0 1.420182 -1.493103 -0.9741642 -4.249682 -21.00954 -7.078127 -0 21.53888 -0 -1.318514 -8.009688 18.49418 -4.395418 -1.946191 8.471573 -0.8972318 10.43182 -3.566074 1.67353 21.45313 5.55311 3.31553 -18.10015 5.96392 4.489317 -20.05452 11.6689 79.11496 28.71665 -5.633416 -0 0 20.8213 -25.16894 10.999 15.73844 3.187963 -16.14181 -2.917322 -92.08615 21.94657 25.37624 0 0 -9.113366 -0.2640082 7.408477 14.36597
281.6298 89.94331 3063.986 2.309097 -4.750211 -6.676949 -1.473924 11.27672 4.666146 -0 49.57292 -0 1.443312 4.30648 -2.18162 -5.480184 -16.016 -7.630625 -0 21.91289 -0 -0.6140875 -9.664721 17.9525 -4.892224 -1.952829 7.887598 -0.8387129 11.34606 -4.407654 1.276133 21.07367 5.957257 3.455741 -19.02277 6.012532 5.14349 -19.75996 12.07486 81.1846 29.97085 -8.236252 -0 0 19.07391 -25.05366 11.35323 15.34947 2.944023 -16.88422 -3.296335 -90.96837 21.42912 24.7382 0 0 -9.944202 0.2939202 6.750508 13.74641
282.0898 91.35747 3070.532 2.038057 -5.129825 -5.355368 -0.7758132 4.413148 4.577121 -0 56.56201 -0 1.343462 8.131175 -3.661475 -5.857182 -10.09789 -7.574236 -0 20.3393 -0 -0.1478814 -11.57244 17.46611 -4.777843 -1.549935 6.784344 -0.4656103 12.22191 -5.735169 0.6450486 20.70815 6.554132 3.515019 -19.90605 6.064291 5.605899 -19.55127 12.47343 83.49226 31.23845 -11.32515 -0 0 17.17698 -24.92709 11.8494 15.09343 2.942623 -17.95745 -3.842751 -89.45924 21.00115 23.20676 0 0 -11.89722 0.7976838 5.853307 13.19478
282.5374 92.55273 3076.49 1.359247 -5.367513 -3.946173 0.334552 -3.793417 4.084202 -0 57.22563 -0 1.103773 8.718 -5.136284 -5.611312 -3.902374 -7.333011 -0 17.35202 -0 -0.05380951 -13.52087 16.96872 -4.163102 -0.8937993 5.329855 0.1904911 12.69312 -7.187784 0.1150758 20.58138 7.156773 3.524855 -20.16104 6.179257 5.726243 -19.07104 12.59222 85.38546 31.80226 -14.28282 -0 0 15.30904 -24.72859 12.46883 14.99327 3.358534 -19.18143 -4.520767 -87.8555 20.9448 20.4496 0 0 -14.69033 1.027859 5.251117 12.96995
